<svg width="512" height="545" viewBox="0 0 512 545" fill="none" xmlns="http://www.w3.org/2000/svg">
<path d="M456.047 516.742C456.047 532.041 365.709 544.441 254.27 544.441C142.832 544.441 52.4941 532.041 52.4941 516.742C52.4941 501.445 142.832 489.044 254.27 489.044C365.709 489.044 456.047 501.445 456.047 516.742Z" fill="#987CA9"/>
<path d="M350.773 492.411C343.623 491.875 336.199 491.397 328.557 490.982C409.782 461.356 467.765 383.43 467.765 291.956C467.765 174.987 372.943 80.1657 255.974 80.1657C139.006 80.1657 44.1847 174.987 44.1847 291.956C44.1847 383.266 101.965 461.079 182.96 490.823C175.29 491.221 167.842 491.681 160.649 492.199C66.8776 454.431 0.692139 362.6 0.692139 255.309C0.692139 114.32 114.986 0.0256092 255.976 0.0256092C396.963 0.0256092 511.257 114.32 511.257 255.309C511.257 362.796 444.819 454.772 350.773 492.411Z" fill="#4FB4AF"/>
<path d="M255.976 510.592C222.277 510.592 190.102 504.061 160.649 492.199C167.842 491.681 175.29 491.221 182.96 490.823C205.72 499.182 230.317 503.746 255.974 503.746C281.469 503.746 305.92 499.238 328.557 490.982C336.199 491.397 343.623 491.875 350.773 492.411C321.463 504.142 289.475 510.592 255.976 510.592Z" fill="#677DBA"/>
<path d="M328.557 490.982C305.566 489.731 280.505 489.044 254.27 489.044C229.165 489.044 205.132 489.673 182.96 490.823C101.965 461.079 44.1848 383.267 44.1848 291.956C44.1848 174.987 139.006 80.1657 255.975 80.1657C372.943 80.1657 467.765 174.987 467.765 291.956C467.765 383.43 409.782 461.356 328.557 490.982ZM228.173 188.412C158.375 201.453 105.549 262.694 105.549 336.275C105.549 419.352 172.897 486.7 255.975 486.7C339.052 486.7 406.401 419.352 406.401 336.275C406.401 271.851 365.907 216.888 308.98 195.453C307.649 172.541 312.287 143.63 281.138 139.795C280.325 139.723 279.523 139.687 278.733 139.687C258.084 139.687 244.794 163.936 228.173 188.412Z" fill="#55C7C2"/>
<path d="M255.975 503.746C230.317 503.746 205.72 499.182 182.96 490.823C205.132 489.673 229.165 489.044 254.27 489.044C280.505 489.044 305.566 489.731 328.557 490.982C305.92 499.238 281.469 503.746 255.975 503.746Z" fill="#8697C8"/>
<path d="M255.975 486.7C172.897 486.7 105.549 419.352 105.549 336.274C105.549 262.694 158.375 201.453 228.173 188.412C221.415 198.365 214.105 208.357 205.528 216.769C193.221 227.906 167.433 226.732 160.595 244.512C155.613 257.468 158.204 276.234 178.345 286.369C172.788 293.568 168.395 303.585 165.481 318.263C157.273 359.583 153.171 375.115 151.706 387.715C150.361 399.289 154.206 403.942 163.697 403.942C164.54 403.942 165.427 403.905 166.359 403.834C177.788 402.954 181.011 383.026 184.527 363.685C187.926 345.001 191.597 325.221 194.219 325.221C194.312 325.221 194.402 325.246 194.492 325.295C197.129 326.762 201.818 349.033 204.75 352.549C205.482 353.428 209.148 353.758 214.229 353.758C228.568 353.758 254.205 351.135 257.204 350.823C260.204 351.135 285.84 353.758 300.181 353.758C305.264 353.758 308.929 353.428 309.662 352.549C312.591 349.033 317.28 326.762 319.917 325.295C320.007 325.246 320.097 325.221 320.189 325.221C322.814 325.221 326.486 345 329.882 363.685C333.398 383.026 336.621 402.954 348.051 403.834C348.983 403.905 349.872 403.942 350.714 403.942C360.204 403.942 364.049 399.29 362.703 387.715C361.238 375.115 357.136 359.583 348.931 318.263C345.767 302.334 340.863 291.893 334.618 284.589C342.924 279.742 349.342 271.199 345.609 256.04C339.162 229.86 318.65 232.399 311.225 209.541C309.87 205.372 309.277 200.563 308.98 195.453C365.907 216.888 406.401 271.851 406.401 336.274C406.401 419.352 339.052 486.7 255.975 486.7Z" fill="#61E4DE"/>
<path d="M257.796 494.5C265.016 492.936 300.004 484.257 324.636 458.441C320.804 454.924 314.292 446.718 308.544 435.777L257.109 443.793L205.672 435.777C199.924 446.718 193.413 454.924 189.58 458.441C214.211 484.257 249.2 492.936 256.423 494.5L256.437 494.777C256.437 494.777 256.684 494.733 257.109 494.646C257.533 494.733 257.778 494.777 257.778 494.777L257.796 494.5Z" fill="#3D5C87"/>
<path d="M181.108 458.829C157.079 454.141 114.489 452.381 95.7317 462.345C76.9773 472.309 65.8411 497.119 107.26 518.025C148.676 538.93 201.234 518.808 243.042 518.418C284.85 518.025 297.547 527.013 314.348 524.082C356.549 527.6 408.635 516.14 417.269 496.714C427.496 473.703 402.265 451.992 366.317 453.554C330.368 455.119 322.75 450.429 305.559 473.287C265.899 482.273 258.083 482.86 245.775 473.677C233.469 464.496 227.607 472.701 218.033 470.16C208.46 467.62 198.105 451.992 181.108 458.829Z" fill="#FABDA2"/>
<path d="M205.528 216.769C193.221 227.906 167.433 226.732 160.595 244.512C153.758 262.291 161.181 291.011 208.654 293.356C256.131 295.7 305.166 292.182 316.693 290.424C328.222 288.666 352.057 282.221 345.61 256.04C339.162 229.86 318.65 232.399 311.225 209.541C303.799 186.683 319.235 144.485 281.138 139.795C250.465 137.062 236.006 186.879 205.528 216.769Z" fill="#673793"/>
<path d="M281.984 143.363L282.233 143.36C284.809 143.362 287.306 144.285 289.633 145.966C293.119 148.485 296.187 152.722 298.366 157.938C300.547 163.153 301.842 169.339 301.842 175.739C301.842 178.164 301.656 180.62 301.263 183.065C299.794 192.228 297.724 201.221 297.72 209.442C297.72 214.309 298.451 218.916 300.502 223.096C302.55 227.278 305.917 231.01 311.09 234.119C317.146 237.76 322.259 241.872 325.839 246.302C329.42 250.736 331.461 255.463 331.461 260.389C331.46 265.679 329.113 271.276 323.559 277.086C323.315 277.342 323.324 277.746 323.58 277.99C323.834 278.234 324.24 278.225 324.484 277.97C330.194 272.005 332.742 266.074 332.74 260.389C332.741 255.099 330.542 250.086 326.832 245.499C323.121 240.909 317.895 236.72 311.749 233.023C306.751 230.014 303.589 226.485 301.65 222.534C299.712 218.582 298.999 214.183 298.999 209.442C298.996 201.435 301.043 192.482 302.526 183.269C302.93 180.753 303.12 178.229 303.12 175.739C303.118 166.976 300.767 158.623 297.002 152.413C295.119 149.309 292.879 146.738 290.382 144.93C287.888 143.124 285.121 142.082 282.233 142.082L281.953 142.086C281.601 142.093 281.322 142.386 281.33 142.739C281.338 143.092 281.631 143.372 281.984 143.363Z" fill="#3B2157"/>
<path d="M230.389 194.447C217.204 203.239 211.197 255.257 229.511 265.22C247.826 275.184 296.18 270.349 297.352 264.635C288.121 254.377 287.389 236.502 291.344 218.332C295.302 200.163 298.085 191.811 297.499 179.796C296.912 167.781 292.078 148.732 278.745 149.61C264.238 150.197 236.398 173.201 230.389 194.447Z" fill="#452569"/>
<path d="M284.097 150.981C284.97 151.059 286.318 151.859 287.732 153.374C289.863 155.634 292.187 159.419 293.959 164.316C295.733 169.215 296.966 175.23 296.966 181.984C296.966 185.301 296.668 188.797 295.991 192.427C293.432 206.187 288.38 222.985 288.375 238.269C288.37 249.09 290.931 259.222 298.813 266.851C299.066 267.097 299.47 267.091 299.717 266.837C299.962 266.583 299.956 266.179 299.701 265.934C292.149 258.616 289.657 248.91 289.653 238.269C289.648 223.257 294.662 206.517 297.248 192.661C297.94 188.951 298.244 185.377 298.244 181.984C298.243 172.77 296.005 164.894 293.174 159.233C291.756 156.401 290.191 154.122 288.662 152.497C287.127 150.88 285.65 149.878 284.234 149.709C283.884 149.672 283.568 149.925 283.531 150.277C283.492 150.627 283.747 150.943 284.097 150.981Z" fill="#3B2157"/>
<path d="M234.277 207.983C233.077 209.573 232.612 211.523 232.614 213.669C232.623 218.182 234.599 223.709 236.539 229.711C238.484 235.705 240.404 242.151 240.402 248.327C240.401 252.361 239.593 256.269 237.459 259.916C237.28 260.22 237.382 260.611 237.688 260.79C237.992 260.968 238.383 260.866 238.562 260.562C240.83 256.688 241.682 252.528 241.68 248.327C241.678 241.889 239.703 235.333 237.754 229.316C235.801 223.306 233.883 217.811 233.892 213.669C233.893 211.695 234.312 210.062 235.297 208.753C235.509 208.471 235.453 208.07 235.172 207.858C234.889 207.645 234.489 207.702 234.277 207.983Z" fill="#3B2157"/>
<path d="M362.703 387.715C361.238 375.115 357.135 359.583 348.931 318.263C340.723 276.943 320.798 272.547 296.181 264.049C271.563 255.549 272.15 235.622 273.321 220.091L257.498 218.678V218.626L257.204 218.651L256.912 218.626V218.678L241.086 220.091C242.258 235.622 242.844 255.549 218.228 264.049C193.613 272.547 173.685 276.943 165.481 318.263C157.273 359.583 153.171 375.115 151.706 387.715C150.242 400.318 154.928 404.713 166.359 403.834C177.788 402.954 181.011 383.026 184.526 363.685C188.045 344.345 191.856 323.832 194.492 325.295C197.129 326.762 201.818 349.033 204.75 352.549C207.548 355.91 253.141 351.245 257.204 350.823C261.267 351.245 306.861 355.91 309.662 352.549C312.59 349.033 317.28 326.762 319.917 325.295C322.556 323.832 326.367 344.345 329.882 363.685C333.398 383.026 336.621 402.954 348.051 403.834C359.48 404.713 364.169 400.318 362.703 387.715Z" fill="#FABDA2"/>
<path d="M275.779 246.525C272.231 238.086 272.691 228.45 273.321 220.091C272.692 228.45 272.239 238.081 275.784 246.521C275.782 246.522 275.78 246.523 275.779 246.525ZM240.741 239.271C240.741 239.267 240.742 239.263 240.742 239.261C240.742 239.263 240.741 239.267 240.741 239.271ZM240.749 239.229C240.75 239.222 240.751 239.213 240.752 239.207C240.751 239.215 240.75 239.221 240.749 239.229ZM240.756 239.185C240.758 239.175 240.76 239.162 240.761 239.152C240.76 239.163 240.758 239.174 240.756 239.185ZM240.764 239.139C240.767 239.125 240.769 239.111 240.772 239.098C240.769 239.112 240.767 239.125 240.764 239.139ZM240.773 239.092C241.303 236.09 241.504 233.032 241.522 230.013C241.504 233.033 241.303 236.09 240.773 239.092ZM241.522 230.001C241.522 229.988 241.522 229.977 241.522 229.964C241.522 229.977 241.522 229.99 241.522 230.001Z" fill="#874764"/>
<path d="M257.499 253.645C250.608 253.645 244.188 250.888 238.788 246.146C239.688 243.919 240.315 241.613 240.741 239.271C240.741 239.267 240.742 239.263 240.742 239.261C240.745 239.249 240.746 239.24 240.749 239.229C240.75 239.221 240.751 239.215 240.753 239.207C240.754 239.199 240.755 239.193 240.756 239.185C240.758 239.174 240.76 239.164 240.761 239.152C240.763 239.148 240.764 239.144 240.764 239.139C240.767 239.125 240.769 239.112 240.772 239.098C240.772 239.096 240.772 239.094 240.773 239.092C241.304 236.09 241.504 233.033 241.522 230.013C241.522 230.009 241.522 230.005 241.522 230.001C241.522 229.99 241.522 229.977 241.522 229.964C241.522 229.95 241.522 229.933 241.522 229.918C241.536 226.549 241.324 223.231 241.086 220.091L256.912 218.678V218.626L257.204 218.651L257.499 218.626V218.678L273.321 220.091C272.691 228.45 272.231 238.086 275.779 246.525C270.467 251.036 264.206 253.645 257.499 253.645Z" fill="#E49B7C"/>
<path d="M292.274 180.627C292.274 206.955 276.705 228.297 257.498 228.297C238.293 228.297 222.721 206.955 222.721 180.627C222.721 154.3 238.293 132.958 257.498 132.958C276.705 132.958 292.274 154.3 292.274 180.627Z" fill="#FABDA2"/>
<path d="M242.592 174.667C242.584 175.658 242.224 176.338 241.656 176.855C241.088 177.364 240.274 177.667 239.424 177.665C238.645 177.664 237.857 177.419 237.182 176.885C236.507 176.349 235.917 175.516 235.587 174.211C235.416 173.526 234.722 173.11 234.038 173.28C233.353 173.452 232.936 174.146 233.107 174.831C233.547 176.608 234.447 177.986 235.595 178.89C236.741 179.798 238.105 180.223 239.424 180.222C240.865 180.221 242.274 179.725 243.356 178.765C244.44 177.811 245.156 176.354 245.149 174.667C245.149 173.962 244.577 173.389 243.87 173.389C243.165 173.389 242.592 173.962 242.592 174.667Z" fill="#100F0D"/>
<path d="M229.658 192.105C229.658 196.797 233.464 200.603 238.156 200.603C242.849 200.603 246.655 196.797 246.655 192.105C246.655 187.411 242.849 183.606 238.156 183.606C233.464 183.606 229.658 187.411 229.658 192.105Z" fill="#F47190"/>
<path d="M244.063 159.699C243.159 159.413 242.124 159.261 241.035 159.261C238.484 159.264 235.604 160.095 233.589 162.212C233.346 162.469 233.356 162.873 233.613 163.116C233.869 163.359 234.273 163.348 234.516 163.091C236.203 161.304 238.753 160.537 241.035 160.54C242.004 160.538 242.919 160.677 243.678 160.917C244.015 161.023 244.374 160.836 244.48 160.5C244.586 160.164 244.399 159.805 244.063 159.699Z" fill="#673793"/>
<path d="M309.517 368.57C314.144 351.378 318.382 331.06 318.382 331.06C306.822 314.256 306.049 291.984 306.436 267.759C297.186 264.242 289.48 260.337 289.48 260.337C292.948 276.356 301.427 325.979 259.806 325.979C259.609 332.954 257.867 340.902 255.114 349.284C254.848 340.854 254.608 332.898 254.41 325.979C212.79 325.979 221.269 276.356 224.738 260.337C224.738 260.337 217.03 264.242 207.781 267.759C208.168 291.984 207.396 314.256 195.834 331.06C195.834 331.06 200.075 351.378 204.7 368.57C209.325 385.761 213.947 411.16 203.155 440.075C207.17 441.574 219.284 443.774 231.633 444.623C277.931 450.203 304.846 442.398 311.061 440.075C300.269 411.16 304.892 385.761 309.517 368.57Z" fill="#F24E8A"/>
<path d="M346.127 375.994C332.133 374.53 297.577 368.082 282.44 357.532C267.304 346.981 266.447 342.586 267.589 324.417C268.733 306.248 262.735 296.284 259.879 298.042C257.021 299.801 257.309 321.78 257.88 341.121C258.451 360.462 256.165 367.202 264.448 372.185C272.729 377.166 310.143 397.679 329.562 403.834C352.98 411.746 363.548 406.178 362.121 390.354C360.693 374.53 346.127 375.994 346.127 375.994Z" fill="#FABDA2"/>
<path d="M169.261 375.994C183.256 374.53 217.812 368.082 232.949 357.532C248.085 346.981 248.942 342.586 247.799 324.417C246.657 306.248 252.654 296.284 255.512 298.042C258.368 299.801 258.08 321.78 257.509 341.121C256.94 360.462 259.222 367.202 250.94 372.185C242.657 377.166 205.246 397.679 185.825 403.834C162.41 411.746 151.842 406.178 153.268 390.354C154.696 374.53 169.261 375.994 169.261 375.994Z" fill="#FABDA2"/>
<path d="M248.509 325.538C248.487 325.16 248.464 324.77 248.436 324.372L248.437 324.376C248.34 322.842 248.295 321.368 248.295 319.957C248.294 312.998 249.39 307.54 250.801 303.859C251.504 302.021 252.29 300.627 253.029 299.727C253.397 299.277 253.753 298.952 254.062 298.753C254.374 298.552 254.627 298.481 254.811 298.482C254.947 298.483 255.054 298.513 255.177 298.587C255.242 298.62 255.407 298.791 255.566 299.124C255.849 299.7 256.124 300.705 256.343 302.016C257.008 305.958 257.244 312.667 257.243 320.351C257.243 326.9 257.075 334.169 256.87 341.102C256.779 344.199 256.761 346.974 256.761 349.467C256.761 351.112 256.769 352.634 256.769 354.047C256.77 357.283 256.726 359.938 256.462 362.146C256.196 364.356 255.713 366.108 254.851 367.589C254.675 367.895 254.778 368.286 255.084 368.462C255.388 368.64 255.779 368.537 255.957 368.231C256.936 366.546 257.454 364.607 257.73 362.298C258.007 359.987 258.047 357.294 258.047 354.047C258.047 352.631 258.039 351.108 258.039 349.467C258.039 346.98 258.057 344.22 258.148 341.14C258.353 334.201 258.521 326.922 258.521 320.351C258.521 314.472 258.387 309.166 258.02 305.16C257.836 303.157 257.596 301.48 257.275 300.198C257.114 299.556 256.932 299.013 256.714 298.563C256.492 298.116 256.239 297.746 255.847 297.498C255.535 297.305 255.173 297.202 254.811 297.204C254.309 297.205 253.824 297.385 253.368 297.679C252.57 298.2 251.816 299.076 251.089 300.288C248.92 303.92 247.022 310.645 247.017 319.957C247.017 321.396 247.063 322.897 247.16 324.457L247.161 324.459V324.461C247.188 324.849 247.21 325.234 247.233 325.614C247.253 325.967 247.556 326.235 247.909 326.215C248.261 326.194 248.53 325.891 248.509 325.538Z" fill="#C77957"/>
<path d="M282.113 141.26C282.699 118.402 247.079 102.212 231.124 123.677C220.085 138.524 232.49 140.576 209.827 160.699C185.346 182.438 211.391 203.388 202.599 216.575C193.807 229.763 162.355 247.735 183.452 277.92C204.551 308.105 235.439 278.665 234.053 260.728C232.1 235.429 216.015 221.057 227.8 207.588C240.792 192.74 242.649 186.586 241.476 171.055C240.305 155.523 252.028 127.487 275.374 142.432C280.648 145.948 281.821 143.897 282.113 141.26Z" fill="#854AAA"/>
<path d="M258.378 128.171C247.111 129.612 242.005 145.11 241.893 162.916C244.331 147.69 255.741 129.865 275.375 142.432C276.666 143.293 277.709 143.817 278.555 144.083C275.045 136.147 269.776 126.712 258.378 128.171Z" fill="#673793"/>
<path d="M166.535 382.096C167.767 380.772 169.399 379.367 172.09 378.033C174.781 376.698 178.532 375.443 183.958 374.475C184.305 374.412 184.537 374.081 184.474 373.733C184.413 373.386 184.08 373.154 183.733 373.216C178.22 374.2 174.352 375.485 171.523 376.887C168.695 378.287 166.907 379.814 165.598 381.226C165.359 381.484 165.373 381.888 165.633 382.129C165.891 382.369 166.295 382.355 166.535 382.096Z" fill="#C77957"/>
<path d="M137.346 476.919C139.123 475.541 142.102 474.331 146.012 473.492C149.921 472.651 154.76 472.166 160.28 472.166C174.178 472.165 192.39 475.232 211.139 483.253C223.519 488.548 232.815 492.669 240.962 495.475C249.106 498.283 256.116 499.772 263.852 499.772C269.495 499.772 275.515 498.982 282.647 497.356C292.652 495.074 301.648 493.854 308.914 493.854C314.8 493.852 319.546 494.664 322.738 496.295C324.335 497.109 325.542 498.118 326.35 499.321C327.158 500.525 327.586 501.93 327.588 503.614L327.582 503.941C327.392 509.835 326.321 514.469 324.333 517.692C322.336 520.911 319.484 522.772 315.448 523.253C315.097 523.294 314.846 523.611 314.886 523.963C314.927 524.313 315.246 524.563 315.596 524.524C319.962 524.027 323.265 521.884 325.421 518.362C327.584 514.845 328.661 510.005 328.86 503.982C328.865 503.858 328.866 503.735 328.866 503.614C328.868 501.712 328.367 500.025 327.411 498.608C325.975 496.477 323.569 494.977 320.439 494.004C317.303 493.032 313.415 492.578 308.914 492.576C301.508 492.578 292.435 493.814 282.364 496.11C275.294 497.721 269.375 498.494 263.852 498.494C256.283 498.493 249.446 497.045 241.378 494.267C233.313 491.489 224.029 487.377 211.643 482.078C192.724 473.985 174.362 470.889 160.28 470.888C154.684 470.888 149.764 471.376 145.742 472.243C141.72 473.112 138.596 474.345 136.565 475.907C136.285 476.123 136.234 476.524 136.45 476.804C136.666 477.083 137.068 477.135 137.346 476.919Z" fill="#C77957"/>
<path d="M173.348 472.1L173.344 471.85C173.343 468.529 175.041 465.171 177.978 462.637C180.914 460.104 185.071 458.408 189.93 458.408C190.543 458.408 191.165 458.435 191.799 458.491C192.151 458.522 192.462 458.261 192.492 457.909C192.523 457.558 192.263 457.248 191.912 457.216C191.241 457.158 190.58 457.13 189.93 457.13C179.621 457.135 172.09 464.322 172.066 471.85L172.07 472.133C172.078 472.486 172.372 472.765 172.725 472.756C173.078 472.747 173.357 472.453 173.348 472.1Z" fill="#C77957"/>
<path d="M327.393 501.699C327.423 501.929 327.437 502.146 327.437 502.352C327.436 503.064 327.273 503.642 326.982 504.136C326.546 504.873 325.792 505.447 324.734 505.845C323.681 506.243 322.339 506.447 320.825 506.446C319.98 506.446 319.081 506.383 318.149 506.258L318.047 506.245L317.946 506.264C316.104 506.609 314.971 506.675 314.379 506.675C314.181 506.675 314.044 506.667 313.961 506.661L313.877 506.653L313.864 506.652L313.829 506.891L313.869 506.652H313.864L313.829 506.891L313.869 506.652C313.521 506.594 313.191 506.829 313.134 507.177C313.076 507.526 313.31 507.855 313.659 507.914C313.698 507.919 313.921 507.953 314.379 507.953C315.064 507.953 316.275 507.878 318.182 507.52L318.064 506.892L317.979 507.526C318.962 507.656 319.916 507.724 320.825 507.724C322.993 507.721 324.908 507.348 326.35 506.484C327.069 506.051 327.668 505.487 328.081 504.787C328.497 504.09 328.717 503.264 328.715 502.352C328.715 502.088 328.697 501.815 328.66 501.535C328.616 501.185 328.295 500.938 327.944 500.983C327.594 501.029 327.347 501.35 327.393 501.699Z" fill="#C77957"/>
<path d="M315.248 512.606C316.499 512.761 318.345 512.916 320.252 512.917C321.732 512.916 323.247 512.825 324.565 512.556C325.878 512.28 327.024 511.861 327.74 511.008C327.963 510.735 327.922 510.332 327.65 510.108C327.377 509.885 326.974 509.926 326.75 510.199C326.397 510.652 325.499 511.07 324.31 511.304C323.125 511.547 321.677 511.638 320.252 511.638C318.414 511.638 316.607 511.488 315.407 511.337C315.057 511.293 314.737 511.542 314.693 511.893C314.649 512.243 314.898 512.563 315.248 512.606Z" fill="#C77957"/>
<path d="M314.128 516.701C315.648 517.004 318.229 517.298 320.676 517.299C321.9 517.298 323.085 517.225 324.1 517.031C325.112 516.827 325.973 516.541 326.552 515.912C326.786 515.648 326.763 515.244 326.498 515.01C326.235 514.775 325.831 514.799 325.596 515.062C325.394 515.313 324.752 515.613 323.858 515.776C322.969 515.948 321.846 516.021 320.676 516.021C318.336 516.022 315.788 515.729 314.379 515.447C314.032 515.378 313.696 515.603 313.627 515.95C313.557 516.295 313.782 516.632 314.128 516.701Z" fill="#C77957"/>
<path d="M312.151 520.767C313.822 521.457 316.752 522.214 319.27 522.22C320.491 522.215 321.626 522.05 322.51 521.498C322.808 521.307 322.895 520.912 322.705 520.614C322.516 520.317 322.121 520.23 321.823 520.419C321.302 520.76 320.365 520.947 319.27 520.941C317.014 520.948 314.127 520.21 312.642 519.587C312.316 519.451 311.941 519.605 311.806 519.931C311.67 520.256 311.825 520.631 312.151 520.767Z" fill="#C77957"/>
<path d="M306.154 473.503C313.749 470.935 328.914 468.036 343.747 468.038C350.844 468.038 357.867 468.7 363.951 470.359C370.038 472.015 375.165 474.667 378.531 478.59C378.762 478.857 379.164 478.888 379.433 478.658C379.7 478.428 379.731 478.025 379.5 477.757C375.894 473.561 370.523 470.825 364.286 469.125C358.046 467.426 350.923 466.761 343.747 466.76C328.742 466.764 313.527 469.667 305.745 472.292C305.41 472.405 305.231 472.767 305.343 473.102C305.456 473.437 305.819 473.616 306.154 473.503Z" fill="#C77957"/>
<path d="M177.081 461.573C176.618 462.187 176.373 462.868 176.374 463.547C176.374 464.31 176.679 465.034 177.177 465.654C177.928 466.587 179.109 467.335 180.587 467.871C182.067 468.404 183.852 468.717 185.826 468.717C186.343 468.717 186.873 468.695 187.413 468.651L187.361 468.014L186.91 468.467C187.597 469.149 188.487 469.607 189.211 469.92C189.936 470.229 190.497 470.383 190.516 470.388C190.857 470.481 191.209 470.281 191.301 469.939C191.394 469.599 191.194 469.248 190.852 469.154L190.773 469.131C190.388 469.026 188.664 468.432 187.812 467.561L187.604 467.352L187.309 467.377C186.802 467.418 186.308 467.439 185.826 467.439C183.376 467.44 181.264 466.913 179.814 466.137C179.09 465.751 178.534 465.304 178.176 464.855C177.815 464.404 177.654 463.968 177.654 463.547C177.655 463.171 177.778 462.778 178.104 462.34C178.316 462.058 178.259 461.656 177.976 461.445C177.695 461.233 177.293 461.291 177.083 461.573" fill="#C77957"/>
<path d="M173.248 467.33L173.224 467.652C173.225 468.452 173.673 469.124 174.274 469.641C175.186 470.424 176.524 470.993 178.034 471.399C179.543 471.803 181.221 472.027 182.79 472.028C183.237 472.028 183.675 472.009 184.098 471.971C184.45 471.94 184.708 471.628 184.676 471.276C184.645 470.925 184.334 470.667 183.982 470.699C183.602 470.732 183.202 470.75 182.79 470.75C180.863 470.751 178.684 470.37 177.047 469.742C176.228 469.432 175.548 469.056 175.111 468.675C174.666 468.286 174.5 467.944 174.503 467.652L174.511 467.524C174.565 467.175 174.326 466.849 173.977 466.796C173.628 466.742 173.302 466.981 173.248 467.33Z" fill="#C77957"/>
<path d="M256.706 311.155C256.197 311.32 255.902 311.702 255.652 312.137C255.225 312.911 254.917 314.021 254.646 315.422C253.847 319.609 253.515 326.355 253.513 332.282C253.513 332.635 253.8 332.921 254.153 332.921C254.505 332.921 254.792 332.635 254.792 332.282C254.792 327.808 254.987 322.84 255.423 318.946C255.641 317 255.919 315.319 256.253 314.129C256.418 313.534 256.598 313.062 256.768 312.761C256.853 312.61 256.933 312.504 256.992 312.445L257.057 312.389L257.074 312.38C257.411 312.279 257.603 311.922 257.502 311.583C257.4 311.246 257.044 311.054 256.706 311.155Z" fill="#C77957"/>
<path d="M256.734 301.95L256.596 301.944C256.135 301.945 255.734 302.164 255.398 302.469C254.807 303.011 254.301 303.872 253.796 305.102C252.3 308.782 250.944 315.852 250.56 326.789C250.547 327.142 250.824 327.438 251.176 327.45C251.529 327.462 251.826 327.186 251.837 326.833C252.125 318.571 252.984 312.551 253.999 308.635C254.505 306.679 255.055 305.247 255.565 304.35C255.818 303.901 256.063 303.591 256.256 303.417C256.452 303.239 256.568 303.22 256.596 303.222H256.606C256.957 303.257 257.271 303.001 257.305 302.65C257.341 302.299 257.085 301.985 256.734 301.95Z" fill="#C77957"/>
<path d="M268.641 325.614C268.664 325.237 268.688 324.851 268.714 324.457C268.811 322.897 268.857 321.396 268.857 319.957C268.857 312.864 267.748 307.266 266.267 303.401C265.526 301.468 264.695 299.969 263.834 298.917C263.404 298.391 262.964 297.976 262.507 297.679C262.051 297.385 261.566 297.205 261.064 297.204C260.703 297.202 260.342 297.305 260.03 297.498C259.637 297.746 259.384 298.116 259.163 298.564C258.782 299.349 258.506 300.432 258.272 301.807C257.583 305.921 257.355 312.649 257.353 320.375C257.353 326.938 257.522 334.21 257.726 341.14C257.818 344.233 257.836 347.003 257.836 349.498C257.836 351.128 257.828 352.642 257.828 354.051C257.828 357.297 257.868 359.989 258.144 362.299C258.422 364.608 258.939 366.546 259.917 368.231C260.095 368.537 260.486 368.64 260.792 368.462C261.096 368.286 261.201 367.895 261.023 367.589C260.163 366.108 259.678 364.357 259.414 362.147C259.149 359.939 259.105 357.285 259.107 354.051C259.107 352.647 259.114 351.134 259.114 349.498C259.114 346.997 259.097 344.212 259.004 341.102C258.8 334.178 258.631 326.918 258.631 320.375C258.631 314.512 258.767 309.223 259.128 305.286C259.307 303.318 259.547 301.686 259.842 300.512C259.988 299.925 260.15 299.454 260.311 299.124C260.47 298.791 260.634 298.62 260.701 298.586C260.822 298.513 260.93 298.483 261.064 298.482C261.248 298.481 261.501 298.552 261.813 298.753C262.356 299.101 263.03 299.838 263.69 300.946C265.685 304.267 267.584 310.828 267.579 319.957C267.579 321.368 267.534 322.842 267.438 324.376C267.413 324.769 267.388 325.157 267.365 325.538C267.345 325.891 267.613 326.194 267.966 326.215C268.318 326.235 268.621 325.967 268.641 325.614Z" fill="#C77957"/>
<path d="M258.804 312.38L258.818 312.389C258.875 312.417 259.056 312.616 259.219 312.982C259.518 313.618 259.807 314.699 260.044 316.046C260.765 320.101 261.083 326.594 261.082 332.282C261.082 332.635 261.368 332.921 261.721 332.921C262.074 332.921 262.36 332.635 262.36 332.282C262.36 327.769 262.165 322.772 261.721 318.804C261.499 316.817 261.217 315.091 260.854 313.785C260.67 313.13 260.471 312.582 260.223 312.137C259.973 311.702 259.679 311.32 259.171 311.155C258.833 311.054 258.476 311.246 258.375 311.583C258.273 311.922 258.465 312.277 258.804 312.38Z" fill="#C77957"/>
<path d="M259.27 303.222L259.28 303.221C259.307 303.22 259.424 303.239 259.619 303.417C259.962 303.718 260.437 304.45 260.895 305.585C262.291 308.998 263.664 315.994 264.039 326.833C264.052 327.186 264.347 327.462 264.7 327.45C265.053 327.438 265.329 327.142 265.316 326.789C265.024 318.459 264.161 312.364 263.112 308.314C262.585 306.288 262.016 304.773 261.422 303.72C261.123 303.193 260.818 302.779 260.478 302.469C260.142 302.165 259.742 301.945 259.28 301.943L259.142 301.95C258.791 301.986 258.535 302.299 258.571 302.65C258.605 303.001 258.92 303.258 259.27 303.222Z" fill="#C77957"/>
<path d="M279.047 143.227C277.399 138.946 274.967 134.961 271.933 132.018C268.903 129.079 265.24 127.172 261.19 127.172C258.297 127.171 255.242 128.15 252.147 130.335C246.477 134.35 243.684 141.859 242.24 149.838C240.802 157.824 240.74 166.335 240.738 172.437C240.738 173.06 240.74 173.659 240.74 174.228C240.74 174.581 241.026 174.867 241.379 174.867C241.732 174.867 242.018 174.581 242.018 174.228C242.018 173.658 242.017 173.059 242.017 172.437C242.017 166.349 242.086 157.904 243.498 150.064C244.905 142.216 247.68 135.03 252.883 131.379C255.808 129.318 258.589 128.451 261.19 128.45C264.824 128.45 268.172 130.157 271.043 132.936C273.908 135.712 276.264 139.549 277.853 143.686C277.98 144.016 278.351 144.181 278.68 144.053C279.009 143.927 279.174 143.557 279.047 143.227Z" fill="#3B2157"/>
<path d="M247.922 137.086C249.727 134.968 252.969 133.726 256.506 133.73C260.843 133.731 265.551 135.571 268.557 139.659C268.766 139.944 269.166 140.006 269.45 139.796C269.735 139.586 269.797 139.186 269.587 138.902C266.3 134.438 261.19 132.452 256.506 132.452C252.684 132.455 249.097 133.762 246.951 136.254C246.721 136.521 246.752 136.925 247.02 137.155C247.288 137.385 247.692 137.353 247.922 137.086Z" fill="#3B2157"/>
<path d="M244.898 144.002C245.47 142.634 247.12 141.357 249.223 140.48C251.319 139.598 253.829 139.098 256 139.099C257.157 139.099 258.218 139.241 259.054 139.521C259.389 139.634 259.751 139.452 259.864 139.117C259.975 138.782 259.793 138.421 259.46 138.309C258.443 137.972 257.261 137.822 256 137.821C253.638 137.824 250.998 138.349 248.729 139.301C246.467 140.261 244.539 141.629 243.722 143.498C243.584 143.823 243.734 144.199 244.059 144.338C244.383 144.478 244.759 144.327 244.898 144.002Z" fill="#3B2157"/>
<path d="M181.33 240.148C178.33 245.567 175.428 251.96 175.427 259.241C175.42 266.616 178.436 274.838 187.15 283.691C187.398 283.943 187.802 283.946 188.054 283.698C188.306 283.45 188.309 283.046 188.061 282.795C179.522 274.1 176.71 266.257 176.705 259.241C176.703 252.311 179.481 246.122 182.449 240.768C182.62 240.46 182.509 240.07 182.2 239.899C181.892 239.729 181.502 239.84 181.33 240.148Z" fill="#3B2157"/>
<path d="M241.153 115.042C238.051 116.929 236.686 119.653 236.025 122.75C235.027 127.407 235.394 133.023 233.498 139.14C231.603 145.251 227.503 151.901 217.434 158.604C212.727 161.735 209.585 164.836 207.616 167.977C205.646 171.117 204.869 174.297 204.871 177.485C204.878 183.087 207.207 188.706 209.483 194.678C211.766 200.651 214.011 206.968 214.009 213.91C214.009 215.142 213.939 216.395 213.786 217.67C213.181 222.689 210.991 227.097 208.005 231.225C203.528 237.416 197.261 242.93 192.074 248.799C186.896 254.664 182.755 260.946 182.752 268.696C182.751 272.379 183.692 276.364 185.859 280.743C186.016 281.058 186.4 281.188 186.715 281.032C187.032 280.876 187.161 280.492 187.006 280.175C184.91 275.94 184.031 272.159 184.031 268.696C184.032 263.85 185.753 259.586 188.422 255.548C192.425 249.492 198.567 244.01 203.982 238.091C209.387 232.173 214.091 225.78 215.055 217.823C215.215 216.495 215.288 215.191 215.288 213.91C215.287 206.687 212.962 200.211 210.677 194.222C208.383 188.233 206.143 182.72 206.15 177.485C206.152 174.5 206.858 171.599 208.699 168.656C210.541 165.716 213.538 162.73 218.143 159.669C224.983 155.122 229.198 150.522 231.829 146.063C235.78 139.372 236.135 133.035 236.621 127.829C236.861 125.223 237.14 122.901 237.869 120.951C238.601 118.999 239.743 117.41 241.82 116.131C242.122 115.947 242.216 115.553 242.031 115.253C241.847 114.951 241.453 114.857 241.153 115.042Z" fill="#3B2157"/>
<path d="M268.676 174.667C268.667 176.354 269.384 177.811 270.468 178.765C271.55 179.725 272.958 180.221 274.399 180.222C275.718 180.223 277.082 179.798 278.228 178.891C279.376 177.986 280.276 176.608 280.717 174.831C280.888 174.147 280.472 173.453 279.788 173.282C279.102 173.109 278.408 173.526 278.237 174.211C277.907 175.516 277.316 176.349 276.641 176.885C275.966 177.42 275.178 177.664 274.399 177.665C273.55 177.667 272.736 177.364 272.167 176.855C271.601 176.338 271.24 175.658 271.232 174.667C271.232 173.962 270.66 173.389 269.954 173.389C269.247 173.389 268.676 173.962 268.676 174.667Z" fill="#100F0D"/>
<path d="M252.755 189.287C253.95 190.742 255.642 191.636 257.47 191.635C259.069 191.637 260.736 190.945 262.198 189.479C262.447 189.229 262.447 188.825 262.198 188.575C261.948 188.325 261.543 188.326 261.294 188.575C260.022 189.843 258.7 190.355 257.47 190.356C256.065 190.356 254.734 189.676 253.742 188.474C253.518 188.202 253.116 188.162 252.842 188.387C252.57 188.611 252.531 189.015 252.755 189.287Z" fill="#C77957"/>
<path d="M250.81 199.487C251.77 202.353 254.405 204.38 257.33 204.388C259.811 204.397 262.405 202.872 264.149 199.428C264.309 199.113 264.183 198.728 263.869 198.567C263.554 198.408 263.169 198.532 263.01 198.846C261.394 201.983 259.277 203.101 257.33 203.11C255.017 203.116 252.81 201.454 252.023 199.081C251.91 198.748 251.549 198.566 251.214 198.677C250.879 198.79 250.698 199.152 250.81 199.487Z" fill="#DB526D"/>
<path d="M284.166 192.105C284.166 196.797 280.36 200.603 275.666 200.603C270.974 200.603 267.169 196.797 267.169 192.105C267.169 187.411 270.974 183.606 275.666 183.606C280.36 183.606 284.166 187.411 284.166 192.105Z" fill="#F47190"/>
<path d="M270.146 160.917C270.905 160.677 271.821 160.538 272.788 160.54C275.072 160.537 277.619 161.304 279.304 163.091C279.547 163.348 279.953 163.359 280.208 163.116C280.465 162.874 280.475 162.469 280.232 162.213C278.219 160.095 275.34 159.264 272.788 159.261C271.699 159.261 270.665 159.413 269.761 159.699C269.425 159.805 269.238 160.164 269.344 160.5C269.45 160.836 269.81 161.023 270.146 160.917Z" fill="#673793"/>
</svg>
