<svg width="390" height="384" viewBox="0 0 390 384" fill="none" xmlns="http://www.w3.org/2000/svg">
<path d="M11.2454 373.392H378.755V50.9946H11.2454V373.392ZM384.05 383.984H5.94963C3.02121 383.984 0.65271 381.613 0.65271 378.689V45.6977C0.65271 42.7738 3.02121 40.4019 5.94963 40.4019H384.05C386.979 40.4019 389.347 42.7738 389.347 45.6977V378.689C389.347 381.613 386.979 383.984 384.05 383.984Z" fill="white"/>
<path d="M290.755 79.4636C287.828 79.4636 285.458 77.0929 285.458 74.1678V5.31134C285.458 2.38741 287.828 0.0155484 290.755 0.0155484C293.683 0.0155484 296.051 2.38741 296.051 5.31134V74.1678C296.051 77.0929 293.683 79.4636 290.755 79.4636Z" fill="white"/>
<path d="M96.5447 79.4636C93.6174 79.4636 91.2489 77.0929 91.2489 74.1678V5.31134C91.2489 2.3874 93.6174 0.0155484 96.5447 0.0155484C99.472 0.0155484 101.842 2.3874 101.842 5.31134V74.1678C101.842 77.0929 99.472 79.4636 96.5447 79.4636Z" fill="white"/>
<path d="M384.05 103.299H9.78627C6.86009 103.299 4.49048 100.928 4.49048 98.0017C4.49048 95.0778 6.86009 92.7059 9.78627 92.7059H384.05C386.979 92.7059 389.347 95.0778 389.347 98.0017C389.347 100.928 386.979 103.299 384.05 103.299Z" fill="white"/>
<path d="M166.451 164.59V197.37C166.451 201.037 168.101 202.87 171.401 202.87C171.914 202.87 172.611 202.76 173.491 202.54C174.371 202.247 175.067 202.1 175.581 202.1C176.534 202.1 177.341 202.503 178.001 203.31C178.661 204.117 178.991 205.143 178.991 206.39C178.991 207.93 178.111 209.25 176.351 210.35C174.591 211.45 172.611 212 170.411 212C167.991 212 165.754 211.743 163.701 211.23C161.721 210.717 159.924 209.433 158.311 207.38C156.771 205.253 156.001 202.063 156.001 197.81V164.59H149.621C148.227 164.59 147.054 164.15 146.101 163.27C145.221 162.317 144.781 161.143 144.781 159.75C144.781 158.357 145.221 157.22 146.101 156.34C147.054 155.46 148.227 155.02 149.621 155.02H156.001V145.78C156.001 144.313 156.477 143.067 157.431 142.04C158.457 141.013 159.741 140.5 161.281 140.5C162.747 140.5 163.957 141.013 164.911 142.04C165.937 143.067 166.451 144.313 166.451 145.78V155.02H175.581C176.974 155.02 178.111 155.497 178.991 156.45C179.944 157.33 180.421 158.467 180.421 159.86C180.421 161.253 179.944 162.39 178.991 163.27C178.111 164.15 176.974 164.59 175.581 164.59H166.451ZM246.641 183.18C246.641 188.9 245.357 194.033 242.791 198.58C240.224 203.127 236.704 206.683 232.231 209.25C227.831 211.817 222.954 213.1 217.601 213.1C212.247 213.1 207.334 211.817 202.861 209.25C198.461 206.683 194.977 203.127 192.411 198.58C189.844 194.033 188.561 188.9 188.561 183.18C188.561 177.46 189.844 172.29 192.411 167.67C194.977 163.05 198.461 159.457 202.861 156.89C207.334 154.323 212.247 153.04 217.601 153.04C222.954 153.04 227.831 154.323 232.231 156.89C236.704 159.457 240.224 163.05 242.791 167.67C245.357 172.29 246.641 177.46 246.641 183.18ZM236.191 183.18C236.191 179.22 235.347 175.7 233.661 172.62C232.047 169.467 229.811 167.047 226.951 165.36C224.164 163.6 221.047 162.72 217.601 162.72C214.154 162.72 211.001 163.6 208.141 165.36C205.354 167.047 203.117 169.467 201.431 172.62C199.817 175.7 199.011 179.22 199.011 183.18C199.011 187.067 199.817 190.55 201.431 193.63C203.117 196.71 205.354 199.13 208.141 200.89C211.001 202.577 214.154 203.42 217.601 203.42C221.047 203.42 224.164 202.577 226.951 200.89C229.811 199.13 232.047 196.71 233.661 193.63C235.347 190.55 236.191 187.067 236.191 183.18Z" fill="white"/>
<path d="M153.886 273.6C158.398 273.6 162.262 274.728 165.478 276.984C168.694 279.24 171.118 282.288 172.75 286.128C174.382 289.92 175.198 294.144 175.198 298.8C175.198 303.504 174.382 307.776 172.75 311.616C171.118 315.408 168.694 318.432 165.478 320.688C162.262 322.896 158.398 324 153.886 324H136.174C135.214 324 134.398 323.664 133.726 322.992C133.054 322.32 132.718 321.504 132.718 320.544V277.056C132.718 276.096 133.054 275.28 133.726 274.608C134.398 273.936 135.214 273.6 136.174 273.6H153.886ZM153.166 317.376C158.062 317.376 161.734 315.648 164.182 312.192C166.63 308.688 167.854 304.224 167.854 298.8C167.854 293.424 166.606 288.984 164.11 285.48C161.662 281.976 158.014 280.224 153.166 280.224H139.846V317.376H153.166ZM224.872 319.536C225.016 319.968 225.088 320.424 225.088 320.904C225.088 321.864 224.752 322.656 224.08 323.28C223.456 323.904 222.712 324.216 221.848 324.216C221.176 324.216 220.552 324.024 219.976 323.64C219.448 323.208 219.016 322.632 218.68 321.912L214.216 311.328H191.968L187.576 321.984C187.336 322.704 186.928 323.256 186.352 323.64C185.824 324.024 185.224 324.216 184.552 324.216C183.544 324.216 182.776 323.952 182.248 323.424C181.72 322.896 181.456 322.176 181.456 321.264C181.456 321.072 181.504 320.688 181.6 320.112L199.96 275.616C200.296 274.848 200.752 274.272 201.328 273.888C201.952 273.456 202.648 273.288 203.416 273.384C204.136 273.384 204.784 273.576 205.36 273.96C205.936 274.344 206.344 274.896 206.584 275.616L224.872 319.536ZM194.704 304.776H211.48L203.056 284.616L194.704 304.776ZM266.03 276.84C266.03 277.56 265.814 278.28 265.382 279L249.902 300.816V320.544C249.902 321.504 249.566 322.32 248.894 322.992C248.27 323.664 247.502 324 246.59 324C245.63 324 244.814 323.664 244.142 322.992C243.47 322.32 243.134 321.504 243.134 320.544V300.24L227.726 279.432C227.054 278.568 226.718 277.704 226.718 276.84C226.718 275.88 227.102 275.064 227.87 274.392C228.638 273.72 229.478 273.384 230.39 273.384C231.494 273.384 232.43 273.912 233.198 274.968L246.734 293.688L259.766 275.04C260.534 273.936 261.494 273.384 262.646 273.384C263.558 273.384 264.35 273.72 265.022 274.392C265.694 275.064 266.03 275.88 266.03 276.84Z" fill="white"/>
<path d="M316.263 246H76.736C74.6721 246 73 244.21 73 242C73 239.79 74.6721 238 76.736 238H316.263C318.327 238 320 239.79 320 242C320 244.21 318.327 246 316.263 246Z" fill="white"/>
</svg>
